<?xml version="1.0" encoding="UTF-8"?> <svg xmlns="http://www.w3.org/2000/svg" width="47" height="36" viewBox="0 0 47 36" fill="none"><mask id="mask0" maskUnits="userSpaceOnUse" x="0" y="0" width="47" height="36"><rect width="47" height="36" fill="#C4C4C4"></rect></mask><g mask="url(#mask0)"><path d="M30.0703 32.8701H27.0703V34.8701H30.0703V32.8701Z" fill="#58595B"></path><path d="M46.5794 32.8701H32.3594V34.8701H46.5794V32.8701Z" fill="#58595B"></path><path d="M21.49 32.8701H8V34.8701H21.49V32.8701Z" fill="#58595B"></path><path d="M5.39 32.8701H0V34.8701H5.39V32.8701Z" fill="#58595B"></path><path d="M18.34 19.5701H0V21.5701H18.34V19.5701Z" fill="#58595B"></path><path d="M17.65 23.5701H0V25.5701H17.65V23.5701Z" fill="#58595B"></path><path d="M46.5801 28.21H35.5801V30.21H46.5801V28.21Z" fill="#58595B"></path><path d="M12.85 28.21H0V30.21H12.85V28.21Z" fill="#58595B"></path><path d="M17.2609 28.21H12.6309V30.21H17.2609V28.21Z" fill="#58595B"></path><path d="M46.5809 23.5701H30.3809V25.5701H46.5809V23.5701Z" fill="#58595B"></path><path d="M39.5795 19.5701H31.6895V21.5701H39.5795V19.5701Z" fill="#58595B"></path><path d="M46.5801 19.5701H41.5801V21.5701H46.5801V19.5701Z" fill="#58595B"></path><path d="M23.9102 19.67L20.9902 25.83C20.8302 26.2 20.7402 26.62 20.7402 27.06C20.7402 28.81 22.1602 30.23 23.9102 30.23C25.6602 30.23 27.0802 28.81 27.0802 27.06C27.0802 26.63 26.9902 26.21 26.8202 25.81L23.9102 19.67ZM23.9102 32.23C21.0602 32.23 18.7402 29.91 18.7402 27.06C18.7402 26.34 18.8802 25.65 19.1702 25L23.9102 15L28.6502 25C28.9402 25.66 29.0802 26.35 29.0802 27.06C29.0802 29.91 26.7602 32.23 23.9102 32.23Z" fill="#58595B"></path></g></svg> 