<?xml version="1.0" encoding="UTF-8"?> <svg xmlns="http://www.w3.org/2000/svg" width="47" height="36" viewBox="0 0 47 36" fill="none"><mask id="mask0" maskUnits="userSpaceOnUse" x="0" y="0" width="47" height="36"><rect width="47" height="36" fill="#C4C4C4"></rect></mask><g mask="url(#mask0)"><path d="M8.00999 35.8099C4.77999 32.0599 3 27.2699 3 22.3099C3 17.5299 4.66999 12.8599 7.70999 9.16992L9.25 10.4399C6.51 13.7699 5 17.9799 5 22.3099C5 26.7899 6.61 31.1199 9.52 34.4999L8.00999 35.8099Z" fill="#58595B"></path><path d="M39.4497 35.7301L37.9297 34.4301C40.8097 31.0601 42.3897 26.7501 42.3897 22.3101C42.3897 17.9601 40.8597 13.7201 38.0897 10.3801L39.6297 9.1001C42.6997 12.8001 44.3997 17.4901 44.3997 22.3101C44.3897 27.2301 42.6297 32.0001 39.4497 35.7301Z" fill="#58595B"></path><path d="M24.3008 30.6399H22.3008V30.4099C22.3008 27.6799 23.3608 25.1199 25.2908 23.1899L26.7008 24.5999C25.1508 26.1499 24.2908 28.2099 24.2908 30.4099V30.6399H24.3008Z" fill="#58595B"></path><path d="M26.8103 23.0799C28.0303 23.3399 29.3303 22.9699 30.2203 22.0799C31.1103 21.1899 31.4803 19.8899 31.2203 18.6699C30.0003 18.4099 28.7003 18.7799 27.8103 19.6699C26.9303 20.5599 26.5603 21.8599 26.8103 23.0799ZM27.5803 25.1599C26.9403 25.1599 26.2903 25.0499 25.6703 24.8299L25.2203 24.6699L25.0603 24.2199C24.3203 22.1499 24.8503 19.8099 26.4003 18.2599C27.9503 16.7099 30.2903 16.1799 32.3603 16.9199L32.8103 17.0799L32.9703 17.5299C33.7103 19.5999 33.1803 21.9399 31.6303 23.4999C30.5503 24.5799 29.0803 25.1599 27.5803 25.1599Z" fill="#58595B"></path><path d="M24.3006 30.6399H22.3006V30.4099C22.3006 28.2199 21.4506 26.1499 19.8906 24.5999L21.3006 23.1899C23.2306 25.1199 24.2906 27.6799 24.2906 30.4099V30.6399H24.3006Z" fill="#58595B"></path><path d="M15.3806 18.6699C15.1206 19.8899 15.4906 21.1799 16.3906 22.0799C17.2806 22.9699 18.5706 23.3399 19.8006 23.0799C20.0606 21.8599 19.6906 20.5599 18.8006 19.6699C17.9006 18.7799 16.6106 18.4099 15.3806 18.6699ZM19.0306 25.1599C17.5306 25.1599 16.0606 24.5799 14.9706 23.4899C13.4206 21.9399 12.8906 19.5999 13.6306 17.5199L13.7906 17.0699L14.2406 16.9099C16.3106 16.1699 18.6506 16.6999 20.2006 18.2499C21.7506 19.7999 22.2806 22.1399 21.5406 24.2099L21.3806 24.6599L20.9307 24.8199C20.3207 25.0499 19.6706 25.1599 19.0306 25.1599Z" fill="#58595B"></path><path d="M23.2996 11.25C22.2496 11.93 21.5996 13.11 21.5996 14.37C21.5996 15.63 22.2496 16.81 23.2996 17.49C24.3396 16.81 24.9996 15.63 24.9996 14.37C24.9996 13.11 24.3496 11.93 23.2996 11.25ZM23.2996 19.74L22.8696 19.54C20.8796 18.6 19.5996 16.57 19.5996 14.37C19.5996 12.18 20.8796 10.15 22.8696 9.2L23.2996 9L23.7296 9.2C25.7196 10.14 26.9996 12.17 26.9996 14.37C26.9996 16.57 25.7196 18.59 23.7296 19.54L23.2996 19.74Z" fill="#58595B"></path><path d="M24.3008 18.6399H22.3008V30.6399H24.3008V18.6399Z" fill="#58595B"></path><path d="M11.3909 32.93C8.86095 29.99 7.46094 26.23 7.46094 22.35C7.46094 18.6 8.77096 14.94 11.151 12.04L12.7009 13.31C10.6109 15.84 9.46094 19.05 9.46094 22.34C9.46094 25.75 10.681 29.04 12.901 31.62L11.3909 32.93Z" fill="#58595B"></path><path d="M36.0493 32.87L34.5293 31.57C36.7193 29 37.9293 25.72 37.9293 22.34C37.9293 19.03 36.7693 15.8 34.6493 13.26L36.1893 11.98C38.5993 14.88 39.9293 18.56 39.9293 22.34C39.9193 26.2 38.5493 29.94 36.0493 32.87Z" fill="#58595B"></path></g></svg> 