<?xml version="1.0" encoding="UTF-8"?> <svg xmlns="http://www.w3.org/2000/svg" width="47" height="36" viewBox="0 0 47 36" fill="none"><mask id="mask0" maskUnits="userSpaceOnUse" x="0" y="0" width="47" height="36"><rect width="47" height="36" fill="#C4C4C4"></rect></mask><g mask="url(#mask0)"><path d="M27.4102 22.6399H25.4102V22.3999C25.4102 19.6699 26.4702 17.1099 28.4002 15.1799L29.8102 16.5899C28.2602 18.1399 27.4002 20.1999 27.4002 22.3999V22.6399H27.4102Z" fill="#58595B"></path><path d="M29.9099 15.0799C31.1299 15.3399 32.4299 14.9699 33.3199 14.0799C34.2099 13.1899 34.5799 11.8899 34.3199 10.6699C33.0999 10.4099 31.7999 10.7799 30.9099 11.6699C30.0299 12.5599 29.6599 13.8599 29.9099 15.0799ZM30.6799 17.1599C30.0399 17.1599 29.3899 17.0499 28.7699 16.8299L28.3199 16.6699L28.1599 16.2199C27.4199 14.1499 27.9499 11.8099 29.4999 10.2599C31.0499 8.70994 33.3899 8.17994 35.4599 8.91994L35.9099 9.07994L36.0699 9.52994C36.8099 11.5999 36.2799 13.9399 34.7299 15.4999C33.6499 16.5699 32.1799 17.1599 30.6799 17.1599Z" fill="#58595B"></path><path d="M27.41 22.6399H25.41V22.3999C25.41 20.2099 24.56 18.1399 23 16.5899L24.41 15.1799C26.34 17.1099 27.4 19.6699 27.4 22.3999V22.6399H27.41Z" fill="#58595B"></path><path d="M18.4902 10.6699C18.2302 11.8899 18.6002 13.1799 19.4902 14.0799C20.3802 14.9699 21.6702 15.3399 22.9002 15.0799C23.1602 13.8599 22.7902 12.5599 21.9002 11.6699C21.0002 10.7799 19.7102 10.4099 18.4902 10.6699ZM22.1302 17.1599C20.6302 17.1599 19.1602 16.5799 18.0702 15.4899C16.5202 13.9399 15.9902 11.5999 16.7302 9.51993L16.8902 9.06993L17.3402 8.90993C19.4102 8.16993 21.7502 8.69993 23.3002 10.2499C24.8502 11.7999 25.3802 14.1399 24.6402 16.2099L24.4802 16.6599L24.0302 16.8199C23.4202 17.0499 22.7702 17.1599 22.1302 17.1599Z" fill="#58595B"></path><path d="M26.4109 3.25C25.3609 3.93 24.7109 5.11 24.7109 6.37C24.7109 7.63 25.3609 8.81 26.4109 9.49C27.4509 8.81 28.1109 7.63 28.1109 6.37C28.1009 5.11 27.4509 3.93 26.4109 3.25ZM26.4109 11.74L25.9809 11.54C23.9909 10.6 22.7109 8.57 22.7109 6.37C22.7109 4.18 23.9909 2.15 25.9809 1.2L26.4109 1L26.8409 1.2C28.8309 2.14 30.1109 4.17 30.1109 6.37C30.1109 8.57 28.8309 10.59 26.8409 11.54L26.4109 11.74Z" fill="#58595B"></path><path d="M27.4102 10.6299H25.4102V28.5399H27.4102V10.6299Z" fill="#58595B"></path><path d="M46.5807 33.74H0.220703V35.74H46.5807V33.74Z" fill="#58595B"></path><path d="M46.5906 20.45H28.5605V22.45H46.5906V20.45Z" fill="#58595B"></path><path d="M20.56 24.45H0V26.45H20.56V24.45Z" fill="#58595B"></path><path d="M22.9402 20.45H14.9902V22.45H22.9402V20.45Z" fill="#58595B"></path><path d="M12.6707 20.45H0.220703V22.45H12.6707V20.45Z" fill="#58595B"></path><path d="M46.5901 29.0901H31.8301V31.0901H46.5901V29.0901Z" fill="#58595B"></path><path d="M46.5906 24.74H32.5605V26.74H46.5906V24.74Z" fill="#58595B"></path><path d="M17.4 29.0901H0V31.0901H17.4V29.0901Z" fill="#58595B"></path><path d="M27.7508 28.0499C27.7508 28.7899 27.1508 29.4 26.4008 29.4C25.6608 29.4 25.0508 28.7999 25.0508 28.0499C25.0508 27.3099 25.6508 26.7 26.4008 26.7C27.1508 26.7 27.7508 27.2999 27.7508 28.0499Z" fill="#58595B"></path><path d="M26.4092 25.5901C25.0492 25.5901 23.9492 26.6901 23.9492 28.0501C23.9492 29.4101 25.0492 30.5101 26.4092 30.5101C27.7692 30.5101 28.8692 29.4101 28.8692 28.0501C28.8692 26.6901 27.7592 25.5901 26.4092 25.5901ZM26.4092 32.5101C23.9492 32.5101 21.9492 30.5101 21.9492 28.0501C21.9492 25.5901 23.9492 23.5901 26.4092 23.5901C28.8692 23.5901 30.8692 25.5901 30.8692 28.0501C30.8692 30.5101 28.8692 32.5101 26.4092 32.5101Z" fill="#58595B"></path></g></svg> 